:FULLY-SPECIFIED
:FORCE-ALL-JOINTS-BE-3DOF
:DEGREES
679
root 5.35766 16.2005 0.931674 15.6397 -23.1932 0.346877
lfemur -36.3365 26.3122 -7.50434
ltibia 105.004 -0 0
lfoot 13.5436 -14.3224 -1.15401
ltoes 8.1977 -0 0
rfemur -37.8595 -12.4216 25.8132
rtibia 59.6556 -0 0
rfoot -23.3534 -5.6954 0.000567496
rtoes 1.8965 -0 0
lowerback 0.902305 -6.55779 -0.585721
upperback -1.85592 -8.7636 0.598404
thorax -2.22969 -4.36342 1.17295
lowerneck -9.04697 -3.9368 0.467439
upperneck 2.43887 -5.44967 2.66525
head 2.40153 -2.62638 0.50606
lclavicle -8.91549e-014 -2.06736e-014 0
lhumerus 20.1169 -60.9764 48.5848
lradius 90.1435 -0 0
lwrist 30.0747 0 0
lhand -14.0074 -1.13918 0.0184634
lfingers 7.12502 -0 0
lthumb 12.1214 28.4771 0.0152135
rclavicle -8.91549e-014 -2.06736e-014 0
rhumerus -46.7197 -9.02185 -43.069
rradius 78.9989 -0 0
rwrist -19.325 0 0
rhand -27.3304 -46.7876 0.00250567
rfingers 7.12502 -0 0
rthumb -0.739173 -76.7658 0.00241788
680
root 5.34941 16.2449 1.06143 15.4218 -24.5671 0.28267
lfemur -37.846 26.2475 -5.27789
ltibia 109.29 -0 0
lfoot 15.7782 -16.4403 -0.988194
ltoes 9.76697 -0 0
rfemur -36.4657 -11.5106 25.2512
rtibia 58.4959 -0 0
rfoot -23.3467 -5.34689 0.000486419
rtoes 1.82715 -0 0
lowerback 1.18622 -6.57265 -0.531603
upperback -1.83128 -8.78396 0.538309
thorax -2.37947 -4.37333 1.11884
lowerneck -8.86977 -3.85603 0.498688
upperneck 2.58821 -5.34568 2.64691
head 2.41622 -2.57408 0.502263
lclavicle -8.91549e-014 -2.06736e-014 0
lhumerus 22.0642 -59.0138 44.8973
lradius 90.8591 -0 0
lwrist 30.4242 0 0
lhand -14.4345 -1.31609 0.0158254
lfingers 7.12502 -0 0
lthumb 11.7096 28.3259 0.0130399
rclavicle -8.91549e-014 -2.06736e-014 0
rhumerus -45.9719 -8.51332 -41.7976
rradius 81.0153 -0 0
rwrist -19.2887 0 0
rhand -27.2828 -46.5719 0.00214771
rfingers 7.12502 -0 0
rthumb -0.693245 -76.5504 0.00207246
681
root 5.34116 16.2893 1.19119 15.2032 -25.9413 0.223542
lfemur -39.3566 26.2355 -3.05104
ltibia 113.576 -0 0
lfoot 18.005 -18.55 -0.740072
ltoes 11.3362 -0 0
rfemur -35.0855 -10.5867 24.7136
rtibia 57.3362 -0 0
rfoot -23.34 -4.99839 0.000364807
rtoes 1.7578 -0 0
lowerback 1.47013 -6.58779 -0.477558
upperback -1.80662 -8.8043 0.478201
thorax -2.52924 -4.38338 1.06476
lowerneck -8.69255 -3.77535 0.530184
upperneck 2.73749 -5.24164 2.62886
head 2.4309 -2.52179 0.49848
lclavicle -8.91549e-014 -2.06736e-014 0
lhumerus 23.6708 -56.9951 41.5337
lradius 91.5746 -0 0
lwrist 30.7737 0 0
lhand -14.8616 -1.49298 0.0118687
lfingers 7.12502 -0 0
lthumb 11.2979 28.1747 0.00977962
rclavicle -8.91549e-014 -2.06736e-014 0
rhumerus -45.2137 -8.02135 -40.5212
rradius 83.0318 -0 0
rwrist -19.2523 0 0
rhand -27.2353 -46.3562 0.00161077
rfingers 7.12502 -0 0
rthumb -0.647318 -76.3349 0.00155434
682
root 5.33292 16.3338 1.32094 14.9835 -27.3157 0.1696
lfemur -40.8668 26.2761 -0.82434
ltibia 117.861 -0 0
lfoot 20.221 -20.6484 -0.410361
ltoes 12.9055 -0 0
rfemur -33.7181 -9.6503 24.2003
rtibia 56.1765 -0 0
rfoot -23.3334 -4.64988 0.000202666
rtoes 1.68844 -0 0
lowerback 1.75404 -6.60319 -0.423588
upperback -1.78194 -8.82461 0.418082
thorax -2.679 -4.39358 1.0107
lowerneck -8.51531 -3.69478 0.561926
upperneck 2.88671 -5.13756 2.61108
head 2.44557 -2.46949 0.494711
lclavicle -8.91549e-014 -2.06736e-014 0
lhumerus 24.9862 -54.9318 38.4426
lradius 92.2902 -0 0
lwrist 31.1231 0 0
lhand -15.2887 -1.66984 0.00659342
lfingers 7.12502 -0 0
lthumb 10.8861 28.0235 0.00543291
rclavicle -8.91549e-014 -2.06736e-014 0
rhumerus -44.4456 -7.54625 -39.2399
rradius 85.0482 -0 0
rwrist -19.216 0 0
rhand -27.1877 -46.1406 0.000894864
rfingers 7.12502 -0 0
rthumb -0.601394 -76.1195 0.000863511
683
root 5.32467 16.3782 1.4507 14.7625 -28.6903 0.120972
lfemur -42.375 26.3693 1.40168
ltibia 122.147 0 0
lfoot 22.4235 -22.7324 0
ltoes 14.4748 0 0
rfemur -32.3629 -8.70221 23.7112
rtibia 55.0168 0 0
rfoot -23.3267 -4.30138 0
rtoes 1.61909 0 0
lowerback 2.03794 -6.61885 -0.369693
upperback -1.75724 -8.8449 0.35795
thorax -2.82876 -4.40391 0.956672
lowerneck -8.33803 -3.6143 0.593916
upperneck 3.03588 -5.03343 2.59357
head 2.46024 -2.41719 0.490955
lclavicle -8.91549e-014 -2.06736e-014 0
lhumerus 26.0518 -52.833 35.5808
lradius 93.0058 0 0
lwrist 31.4726 0 0
lhand -15.7158 -1.84665 0
lfingers 7.12502 0 0
lthumb 10.4744 27.8724 0
rclavicle -8.91549e-014 -2.06736e-014 0
rhumerus -43.6678 -7.08832 -37.9536
rradius 87.0646 0 0
rwrist -19.1796 0 0
rhand -27.1402 -45.9249 0
rfingers 7.12502 0 0
rthumb -0.555473 -795.904 0
684
root 5.32098 16.5599 1.61692 14.6543 -30.4602 0.297498
lfemur -42.7773 25.3428 3.44911
ltibia 122.666 -0 0
lfoot 21.2525 -21.0164 -0.177316
ltoes 16.0152 -0 0
rfemur -30.0181 -8.18164 22.6307
rtibia 50.684 -0 0
rfoot -20.3636 -3.64978 0.172556
rtoes 1.67965 -0 0
lowerback 2.11729 -6.41471 -0.555957
upperback -1.75415 -8.5894 0.0979238
thorax -2.8854 -4.27471 0.790395
lowerneck -8.15237 -3.71178 0.538768
upperneck 3.14312 -5.17252 2.8473
head 2.47615 -2.48125 0.578313
lclavicle -2.46493e-014 2.54444e-014 0
lhumerus 27.3769 -50.6179 32.8853
lradius 91.9311 -0 0
lwrist 31.3359 0 0
lhand -16.2566 -2.25232 0.0191662
lfingers 7.12502 -0 0
lthumb 9.95243 27.4856 0.0176367
rclavicle -2.46493e-014 2.54444e-014 0
rhumerus -43.0345 -7.14317 -35.9631
rradius 88.3399 -0 0
rwrist -18.4379 0 0
rhand -27.7694 -45.5111 -0.0227572
rfingers 7.12502 -0 0
rthumb -1.16308 -75.479 -0.0225668
685
root 5.31728 16.7416 1.78315 14.5375 -32.2298 0.481329
lfemur -43.2164 24.3298 5.4876
ltibia 123.185 -0 0
lfoot 20.0768 -19.2971 -0.319452
ltoes 17.5556 -0 0
rfemur -27.6867 -7.6179 21.574
rtibia 46.3512 -0 0
rfoot -17.3986 -2.99013 0.311188
rtoes 1.74021 -0 0
lowerback 2.19595 -6.21032 -0.741863
upperback -1.75223 -8.33389 -0.161916
thorax -2.94241 -4.14567 0.624018
lowerneck -7.96659 -3.80908 0.483297
upperneck 3.24977 -5.31208 3.10082
head 2.49195 -2.54534 0.665658
lclavicle -2.46493e-014 2.54444e-014 0
lhumerus 28.4848 -48.368 30.3877
lradius 90.8563 -0 0
lwrist 31.1992 0 0
lhand -16.7975 -2.65815 0.0345024
lfingers 7.12502 -0 0
lthumb 9.43036 27.0987 0.0317488
rclavicle -2.46493e-014 2.54444e-014 0
rhumerus -42.4035 -7.2198 -33.973
rradius 89.6152 -0 0
rwrist -17.6963 0 0
rhand -28.3988 -45.097 -0.0409677
rfingers 7.12502 -0 0
rthumb -1.77083 -75.0538 -0.0406248
686
root 5.31359 16.9233 1.94937 14.4116 -33.999 0.673249
lfemur -43.691 23.3316 7.51874
ltibia 123.703 -0 0
lfoot 18.8972 -17.5752 -0.42622
ltoes 19.096 -0 0
rfemur -25.3693 -7.01217 20.5427
rtibia 42.0184 -0 0
rfoot -14.4323 -2.32418 0.415506
rtoes 1.80076 -0 0
lowerback 2.27391 -6.00567 -0.927415
upperback -1.75148 -8.07838 -0.42158
thorax -2.99978 -4.0168 0.45754
lowerneck -7.78069 -3.9062 0.427504
upperneck 3.35582 -5.45211 3.35414
head 2.50766 -2.60945 0.75299
lclavicle -2.46493e-014 2.54444e-014 0
lhumerus 29.404 -46.0898 28.0577
lradius 89.7816 -0 0
lwrist 31.0625 0 0
lhand -17.3384 -3.06411 0.0460065
lfingers 7.12502 -0 0
lthumb 8.9082 26.7117 0.0423345
rclavicle -2.46493e-014 2.54444e-014 0
rhumerus -41.7754 -7.31814 -31.9834
rradius 90.8905 -0 0
rwrist -16.9546 0 0
rhand -29.0283 -44.6828 -0.0546283
rfingers 7.12502 -0 0
rthumb -2.37871 -74.6284 -0.0541709
687
root 5.3099 17.105 2.11559 14.2755 -35.7679 0.874138
lfemur -44.2001 22.3494 9.54402
ltibia 124.222 -0 0
lfoot 17.715 -15.8515 -0.497478
ltoes 20.6364 -0 0
rfemur -23.0661 -6.3657 19.5382
rtibia 37.6856 -0 0
rfoot -11.4648 -1.65372 0.485215
rtoes 1.86132 -0 0
lowerback 2.35117 -5.80078 -1.11262
upperback -1.7519 -7.82286 -0.681079
thorax -3.05752 -3.8881 0.290957
lowerneck -7.59468 -4.00313 0.371388
upperneck 3.46127 -5.59261 3.60726
head 2.52328 -2.67358 0.840309
lclavicle -2.46493e-014 2.54444e-014 0
lhumerus 30.1584 -43.7888 25.8698
lradius 88.7068 -0 0
lwrist 30.9258 0 0
lhand -17.8795 -3.47016 0.0536767
lfingers 7.12502 -0 0
lthumb 8.38598 26.3246 0.0493923
rclavicle -2.46493e-014 2.54444e-014 0
rhumerus -41.1509 -7.43803 -29.9946
rradius 92.1658 -0 0
rwrist -16.213 0 0
rhand -29.6579 -44.2684 -0.0637367
rfingers 7.12502 -0 0
rthumb -2.98667 -74.2029 -0.0632029
688
root 5.3062 17.2867 2.28182 14.1286 -37.5364 1.08499
lfemur -44.7427 21.3844 11.5648
ltibia 124.741 -0 0
lfoot 16.5312 -14.1266 -0.533131
ltoes 22.1768 -0 0
rfemur -20.7775 -5.67978 18.5618
rtibia 33.3529 -0 0
rfoot -8.49678 -0.980537 0.520118
rtoes 1.92188 -0 0
lowerback 2.42774 -5.59564 -1.29748
upperback -1.75349 -7.56735 -0.940424
thorax -3.11562 -3.75956 0.12427
lowerneck -7.40855 -4.09989 0.314951
upperneck 3.56612 -5.73357 3.86018
head 2.5388 -2.73774 0.927614
lclavicle -2.46493e-014 2.54444e-014 0
lhumerus 30.7675 -41.4695 23.8021
lradius 87.6321 -0 0
lwrist 30.7891 0 0
lhand -18.4206 -3.87627 0.0575121
lfingers 7.12502 -0 0
lthumb 7.86373 25.9374 0.0529215
rclavicle -2.46493e-014 2.54444e-014 0
rhumerus -40.5308 -7.57935 -28.0067
rradius 93.4411 -0 0
rwrist -15.4713 0 0
rhand -30.2876 -43.854 -0.0682913
rfingers 7.12502 -0 0
rthumb -3.59467 -73.7773 -0.0677193
